<svg width="217" height="100" viewBox="0 0 217 100" fill="none" xmlns="http://www.w3.org/2000/svg">
<path d="M217 93.5294L0 100V0H196.743L217 93.5294Z" fill="url(#paint0_linear)"/>
<path d="M68.8662 38.084V60.0902H64.5039V38.9054L68.8662 38.084Z" fill="white"/>
<path d="M73.9031 49.3154C73.9031 47.1608 73.8683 46.4477 73.762 45.011L77.5569 44.1896L77.699 47.2258H77.8402C78.6915 44.9725 80.7132 43.8303 82.5579 43.8303C82.9036 43.8272 83.2485 43.8601 83.5862 43.9281V47.7159C83.1669 47.6305 82.739 47.5867 82.3096 47.5851C81.369 47.5631 80.4524 47.86 79.7333 48.4196C79.0143 48.9792 78.5428 49.7626 78.4083 50.6213C78.3201 51.0301 78.2725 51.4454 78.2663 51.8622V60.0898H73.9031V49.3154Z" fill="white"/>
<path d="M91.0286 39.7499C91.0439 40.1993 90.9133 40.6428 90.6537 41.0234C90.394 41.404 90.017 41.7044 89.571 41.8862C89.125 42.068 88.6303 42.1229 88.1502 42.0438C87.6702 41.9648 87.2267 41.7554 86.8765 41.4424C86.5263 41.1295 86.2854 40.7273 86.1847 40.2873C86.0839 39.8474 86.1279 39.3897 86.311 38.9729C86.494 38.5561 86.8079 38.1992 87.2123 37.948C87.6167 37.6967 88.0932 37.5624 88.5808 37.5624C88.9009 37.5447 89.2214 37.5886 89.522 37.6913C89.8227 37.794 90.0968 37.9534 90.3271 38.1591C90.5573 38.3649 90.7386 38.6126 90.8594 38.8864C90.9801 39.1603 91.0378 39.4544 91.0286 39.7499V39.7499ZM86.3814 60.0908V45.012L90.7802 44.1906V60.0908L86.3814 60.0908Z" fill="white"/>
<path d="M94.5091 56.4012C95.867 57.1027 97.3873 57.4943 98.9428 57.5435C100.858 57.5435 101.71 56.8256 101.71 55.7804C101.71 54.7031 101 54.148 98.8722 53.4622C95.5025 52.3849 94.0838 50.6875 94.1187 48.8257C94.1187 46.0182 96.6371 43.8308 100.646 43.8308C102.23 43.8131 103.797 44.1373 105.221 44.7773L104.37 47.6177C103.252 47.0402 101.997 46.7264 100.716 46.7041C99.1555 46.7041 98.3041 47.3891 98.3041 48.3693C98.3041 49.3808 99.1206 49.8709 101.319 50.5889C104.441 51.6341 105.895 53.1036 105.931 55.4539C105.931 58.3272 103.483 60.4168 98.9071 60.4168C97.0853 60.4474 95.283 60.0662 93.6577 59.3066L94.5091 56.4012Z" fill="white"/>
<path d="M108.472 37.7316L112.871 36.9102V46.3787H112.942C113.483 45.6097 114.227 44.9803 115.105 44.5498C116.012 44.0725 117.04 43.8248 118.085 43.8319C121.028 43.8319 124.114 45.6279 124.114 50.7208V60.0915H119.752V51.178C119.752 48.8598 118.83 47.1295 116.418 47.1295C115.671 47.1312 114.943 47.3496 114.338 47.7539C113.733 48.1582 113.282 48.7278 113.048 49.382C112.91 49.7714 112.85 50.1808 112.871 50.59V60.0915H108.472V37.7316Z" fill="white"/>
<path d="M134.803 38.9054L139.166 38.084V56.7275H148.991V60.0902H134.803V38.9054Z" fill="white"/>
<path d="M156.238 39.7499C156.253 40.1993 156.123 40.6428 155.863 41.0234C155.603 41.404 155.226 41.7044 154.78 41.8862C154.334 42.068 153.84 42.1229 153.359 42.0438C152.879 41.9648 152.436 41.7554 152.086 41.4424C151.736 41.1295 151.495 40.7273 151.394 40.2873C151.293 39.8474 151.337 39.3897 151.52 38.9729C151.703 38.5561 152.017 38.1992 152.421 37.948C152.826 37.6967 153.302 37.5624 153.79 37.5624C154.11 37.5447 154.431 37.5886 154.731 37.6913C155.032 37.794 155.306 37.9534 155.536 38.1591C155.767 38.3649 155.948 38.6126 156.069 38.8864C156.189 39.1603 156.247 39.4544 156.238 39.7499V39.7499ZM151.591 60.0908V45.012L155.989 44.1906V60.0908L151.591 60.0908Z" fill="white"/>
<path d="M161.167 60.0907V47.1937H158.827V44.1905H161.167V43.5046C161.167 41.4479 161.77 39.3904 163.26 38.0845C164.5 37.0702 166.108 36.5225 167.765 36.55C168.716 36.535 169.663 36.6673 170.567 36.9414L170.247 40.0433C169.658 39.8412 169.032 39.7417 168.403 39.7497C166.24 39.7497 165.495 41.415 165.495 43.3739V44.1905H169.29V47.1937H165.53V60.0907H161.167Z" fill="white"/>
<path d="M174.682 53.2677C174.789 56.141 177.235 57.382 180.002 57.382C181.633 57.4216 183.257 57.1778 184.791 56.6632L185.429 59.4386C183.504 60.1135 181.458 60.4459 179.399 60.4181C173.795 60.4181 170.497 57.2512 170.497 52.3862C170.497 47.9783 173.405 43.832 178.938 43.832C184.542 43.832 186.387 48.0762 186.387 51.5696C186.393 52.1383 186.345 52.7065 186.245 53.2677L174.682 53.2677ZM182.272 50.4602C182.308 48.9907 181.599 46.5746 178.69 46.5746C175.995 46.5746 174.859 48.827 174.682 50.4602H182.272Z" fill="white"/>
<path d="M56.0027 66.5673L55.7688 64.6295L56.0027 62.2613L55.2908 61.74C54.8039 62.0017 54.3082 62.2368 54.1691 62.3088C53.8703 62.4747 51.2255 63.9993 51.2255 63.9993L49.1861 63.4738L48.0902 63.2002L47.9975 62.4824C47.9975 62.4824 47.7639 57.7296 47.7897 57.5617C47.8149 57.391 47.0595 52.5102 47.0595 52.5102L46.6375 49.8843L46.9797 46.4952L47.7215 42.0069C47.6774 41.8841 47.7436 40.1948 47.7436 40.1948C47.7436 40.1948 47.6774 37.4595 47.6841 37.3423C47.6913 37.2248 47.8583 35.6932 47.8583 35.6932L48.6653 33.7317L48.8463 32.966C48.8417 32.9285 48.8259 32.8929 48.8008 32.8631C48.5791 32.7037 48.3199 32.5945 48.0442 32.5442C47.7684 32.4939 47.4837 32.5039 47.2129 32.5734C46.7741 32.6748 46.3725 32.8821 46.0494 33.1741C45.8646 33.8503 45.7205 34.5354 45.6176 35.2262L45.4023 37.7719L45.0095 40.7193C45.0095 40.7193 44.8445 41.621 44.8102 41.7358C44.7186 42.0416 44.2405 41.8841 44.2405 41.8841C44.1871 41.6021 44.1588 41.3165 44.156 41.0302C44.1828 40.7686 44.3573 39.3892 44.3573 39.3892C44.363 39.3596 44.3655 39.3296 44.3648 39.2996C44.3246 38.862 44.2472 38.4279 44.1333 38.0014C44.051 37.825 43.9128 37.6756 43.7369 37.5727C43.561 37.4698 43.3555 37.4183 43.1474 37.4249C42.7204 37.3971 42.2913 37.4295 41.8749 37.521C41.7109 37.5579 41.5567 37.6249 41.4215 37.7179C41.2862 37.811 41.1726 37.9282 41.0876 38.0626C40.9482 38.3106 40.8772 38.5864 40.8808 38.8657C40.8808 38.8657 41.0428 40.5817 41.1324 40.8567C41.2441 41.189 41.4556 41.8174 41.4556 41.8174C41.4556 41.8174 41.498 42.4511 40.8832 42.1189C40.8601 42.1013 40.838 42.0826 40.817 42.0628L40.1529 40.85L40.1149 40.7527L40.0857 40.6457L39.8032 39.0179L39.7832 38.8767L39.793 37.5022C39.8413 37.3371 40.2341 35.4931 40.7532 34.7484L41.3558 33.9935C41.9922 33.3463 42.5902 32.6679 43.1474 31.9612C43.2062 31.884 43.255 31.8007 43.2927 31.7129C43.4475 31.2847 45.4648 30.2614 46.2895 29.6901C46.8376 29.272 47.453 28.9353 48.1136 28.6921C48.4786 28.5976 49.105 28.3839 49.3426 28.2961C49.5961 28.22 49.8399 28.1189 50.0698 27.9945C50.099 27.9396 49.8464 27.8665 49.8464 27.8665L48.261 27.6822C48.261 27.6822 47.6471 27.5863 47.5453 27.4208C47.1486 27.128 46.7263 26.8661 46.2827 26.6376C45.7698 26.4957 45.2214 26.5074 44.7162 26.6709C44.1831 26.816 43.6593 26.9889 43.1473 27.1886C43.1446 27.1907 43.1415 27.1924 43.1382 27.1938C42.6885 27.4656 42.2243 27.7164 41.7472 27.9452C41.6429 27.9818 41.5438 28.0297 41.4519 28.088L41.238 27.8385C41.238 27.8385 41.5734 27.298 41.6427 27.1724C41.7092 27.0471 42.2864 25.8357 42.2864 25.8357C42.5134 25.3356 42.6943 24.8187 42.8268 24.2905C43.0621 23.3873 42.0558 22.364 41.2889 21.9316C40.5236 21.4965 37.9441 21.7102 37.3876 21.7822C36.8336 21.8543 34.5677 22.2119 34.3756 22.2839C34.1793 22.356 31.5023 23.1057 31.3587 23.1431C31.2766 23.1644 30.6665 23.366 30.094 23.5646C30.094 23.5646 27.8394 24.6281 27.2979 25.0019C26.3964 25.6752 25.4212 26.2598 24.388 26.7461L23.5083 27.0576L23.8468 27.369C23.8468 27.369 24.9295 27.5559 25.6737 27.6805C26.6222 27.7701 27.5796 27.742 28.5201 27.5971C29.0852 27.4319 29.6169 27.1821 30.094 26.8576C30.2787 26.7412 30.4771 26.6445 30.6854 26.5694C30.7143 26.5588 30.788 26.5228 30.8267 26.5109C31.3064 26.3897 31.7997 26.3202 32.2967 26.3038C32.3446 26.3069 32.392 26.3137 32.4386 26.3241C32.5429 26.3374 33.2185 26.5906 33.3349 26.9576C33.4229 27.4679 33.3429 27.9908 33.1054 28.4588C32.6993 28.9461 32.1828 29.3459 31.5919 29.6303C31.3084 29.737 30.6535 29.969 30.094 30.1827C29.1218 30.4467 28.125 30.6262 27.1166 30.719H26.181L25.9474 31.5802C25.8827 32.0849 25.9223 32.5963 26.0642 33.0873C26.318 33.6745 26.6734 34.2199 27.1166 34.7021C27.3787 34.9062 27.7093 35.0203 28.0523 35.0251L29.1048 33.8409L30.0941 32.9859L30.6217 32.6748C30.6217 32.6748 30.8152 32.5577 30.8709 32.5217C31.3233 32.2857 31.8076 32.1057 32.3111 31.9864C32.4913 31.9504 33.043 31.7649 33.2922 31.7194C33.3596 31.714 33.4275 31.7186 33.4932 31.7331C33.4932 31.7331 34.4764 31.9972 34.4764 32.7123C34.4703 33.1577 34.3596 33.5965 34.1518 33.9986L34.0996 34.1014L33.9583 34.2481L32.8417 34.9991C32.8417 34.9991 32.7171 35.0659 32.6706 35.0925C32.3305 35.2489 31.974 35.3728 31.6066 35.4624C30.5694 35.7068 29.1252 36.9621 29.1252 36.9621C28.2452 37.585 27.4334 39.0178 27.0949 39.3292C26.7568 39.6407 26.8243 39.8899 26.8243 39.8899C27.8955 39.5379 28.9871 39.2414 30.0941 39.0019L33.5768 38.3243C33.5768 38.3243 35.2654 38.0255 35.7482 37.6599C36.228 37.3441 36.7397 37.0715 37.276 36.8459L37.3381 39.9549L37.3724 40.1602L38.0253 42.3535C38.0253 42.3535 39.5873 46.2283 39.512 47.2026C39.4339 48.1807 39.1888 52.0645 39.1888 52.0645C39.1888 52.0645 38.2585 56.4297 38.2436 56.918C38.2334 57.4043 38.0582 59.7012 38.0582 59.7012L38.0124 60.82L38.011 62.6902C37.5624 62.9041 37.0912 63.075 36.6048 63.2002C35.3451 63.6268 34.1382 64.1756 33.0043 64.8374C32.5718 65.1761 31.8636 65.3307 31.9145 65.5182C32.0013 65.7417 32.1055 65.9592 32.2262 66.1689C32.2262 66.1689 31.7869 66.7482 32.1142 66.9832C32.4014 67.1883 35.3507 68.5281 36.0681 68.8458C36.1309 68.8731 36.1973 68.8929 36.2656 68.9045L39.2689 69.5902L39.6223 69.6224C39.6223 69.6224 39.8892 69.6301 40.0236 69.6168C40.6018 69.5525 42.1214 69.3873 43.1474 69.2907C43.4811 69.2613 43.7592 69.2376 43.9388 69.2271C44.0389 69.2215 44.1218 69.1978 44.1445 69.2026C44.3519 69.2565 48.3567 67.8578 49.0297 67.669C49.6573 67.4217 50.2481 67.1015 50.7876 66.716L53.2327 67.3695L53.4738 67.4604C53.4738 67.4604 54.4573 67.8817 55.2908 68.3091C55.6337 68.1663 55.9522 67.9785 56.2367 67.7515L56.0027 66.5673ZM43.1474 62.4691L40.8778 62.3404L41.0747 58.5328C41.0747 58.5328 41.6722 55.1815 41.6722 54.9674C41.6722 54.784 41.9649 53.3456 42.0498 52.958C42.0583 52.9212 42.0758 52.8867 42.101 52.8572L42.192 52.7795L42.5818 52.5528L42.9474 52.4192L43.0547 52.406C43.0547 52.406 43.0927 52.4087 43.1474 52.4108C43.3017 52.4276 43.4529 52.4638 43.5965 52.5185C43.7965 52.6192 44.0749 53.5638 44.0749 53.5638L44.4928 56.1582L44.72 59.2962L44.9274 62.5754L43.1474 62.4691Z" fill="white"/>
<defs>
<linearGradient id="paint0_linear" x1="6.92439" y1="97.264" x2="189.111" y2="4.04669" gradientUnits="userSpaceOnUse">
<stop offset="0.01455" stop-color="#2B2E8C"/>
<stop offset="0.99891" stop-color="#5C62AC"/>
</linearGradient>
</defs>
</svg>
